<svg width="22" height="22" viewBox="0 0 22 22" fill="none" xmlns="http://www.w3.org/2000/svg">
<path d="M1 4.2C1 3.07989 1 2.51984 1.21799 2.09202C1.40973 1.71569 1.71569 1.40973 2.09202 1.21799C2.51984 1 3.07989 1 4.2 1H5.8C6.92011 1 7.48016 1 7.90798 1.21799C8.28431 1.40973 8.59027 1.71569 8.78201 2.09202C9 2.51984 9 3.07989 9 4.2V5.8C9 6.92011 9 7.48016 8.78201 7.90798C8.59027 8.28431 8.28431 8.59027 7.90798 8.78201C7.48016 9 6.92011 9 5.8 9H4.2C3.07989 9 2.51984 9 2.09202 8.78201C1.71569 8.59027 1.40973 8.28431 1.21799 7.90798C1 7.48016 1 6.92011 1 5.8V4.2Z" stroke="#FBFBFB" stroke-width="1.5" stroke-linecap="round" stroke-linejoin="round"/>
<path d="M13 4.2C13 3.07989 13 2.51984 13.218 2.09202C13.4097 1.71569 13.7157 1.40973 14.092 1.21799C14.5198 1 15.0799 1 16.2 1H17.8C18.9201 1 19.4802 1 19.908 1.21799C20.2843 1.40973 20.5903 1.71569 20.782 2.09202C21 2.51984 21 3.07989 21 4.2V5.8C21 6.92011 21 7.48016 20.782 7.90798C20.5903 8.28431 20.2843 8.59027 19.908 8.78201C19.4802 9 18.9201 9 17.8 9H16.2C15.0799 9 14.5198 9 14.092 8.78201C13.7157 8.59027 13.4097 8.28431 13.218 7.90798C13 7.48016 13 6.92011 13 5.8V4.2Z" stroke="#FBFBFB" stroke-width="1.5" stroke-linecap="round" stroke-linejoin="round"/>
<path d="M1 16.2C1 15.0799 1 14.5198 1.21799 14.092C1.40973 13.7157 1.71569 13.4097 2.09202 13.218C2.51984 13 3.07989 13 4.2 13H5.8C6.92011 13 7.48016 13 7.90798 13.218C8.28431 13.4097 8.59027 13.7157 8.78201 14.092C9 14.5198 9 15.0799 9 16.2V17.8C9 18.9201 9 19.4802 8.78201 19.908C8.59027 20.2843 8.28431 20.5903 7.90798 20.782C7.48016 21 6.92011 21 5.8 21H4.2C3.07989 21 2.51984 21 2.09202 20.782C1.71569 20.5903 1.40973 20.2843 1.21799 19.908C1 19.4802 1 18.9201 1 17.8V16.2Z" stroke="#FBFBFB" stroke-width="1.5" stroke-linecap="round" stroke-linejoin="round"/>
<path d="M13 16.2C13 15.0799 13 14.5198 13.218 14.092C13.4097 13.7157 13.7157 13.4097 14.092 13.218C14.5198 13 15.0799 13 16.2 13H17.8C18.9201 13 19.4802 13 19.908 13.218C20.2843 13.4097 20.5903 13.7157 20.782 14.092C21 14.5198 21 15.0799 21 16.2V17.8C21 18.9201 21 19.4802 20.782 19.908C20.5903 20.2843 20.2843 20.5903 19.908 20.782C19.4802 21 18.9201 21 17.8 21H16.2C15.0799 21 14.5198 21 14.092 20.782C13.7157 20.5903 13.4097 20.2843 13.218 19.908C13 19.4802 13 18.9201 13 17.8V16.2Z" stroke="#FBFBFB" stroke-width="1.5" stroke-linecap="round" stroke-linejoin="round"/>
</svg>
