<svg width="24" height="23" viewBox="0 0 24 23" fill="none" xmlns="http://www.w3.org/2000/svg">
<path d="M8.00001 21.4063C9.00322 21.5279 10.2763 21.5279 12 21.5279C13.7237 21.5279 14.9968 21.5279 16 21.4063M8.00001 21.4063C7.08473 21.2955 6.39406 21.0834 5.79064 20.678C5.68918 20.6098 5.59025 20.5379 5.49405 20.4625C4.2949 19.5222 3.78559 17.9547 2.76696 14.8197C1.74832 11.6846 1.23901 10.1171 1.65645 8.65157C1.68994 8.534 1.72773 8.41771 1.76974 8.30291C2.29344 6.87189 3.62685 5.90311 6.29367 3.96556C8.96048 2.028 10.2939 1.05923 11.8167 1.00336C11.9389 0.99888 12.0611 0.99888 12.1833 1.00336C13.7061 1.05923 15.0395 2.028 17.7063 3.96556C20.3732 5.90311 21.7066 6.87189 22.2303 8.30291C22.2723 8.41771 22.3101 8.534 22.3436 8.65157C22.761 10.1171 22.2517 11.6846 21.2331 14.8197C20.2144 17.9547 19.7051 19.5222 18.506 20.4625C18.4098 20.5379 18.3108 20.6098 18.2094 20.678C17.606 21.0834 16.9153 21.2955 16 21.4063M8.00001 21.4063V21.3197V17.8197C8.00001 15.6105 9.79087 13.8197 12 13.8197C14.2091 13.8197 16 15.6105 16 17.8197V21.3197V21.4063" stroke="#FBFBFB" stroke-width="1.5"/>
</svg>
