<?xml version="1.0" encoding="iso-8859-1"?>
<!-- Uploaded to: SVG Repo, www.svgrepo.com, Generator: SVG Repo Mixer Tools -->
<svg fill="#000000" height="800px" width="800px" version="1.1" id="Layer_1" xmlns="http://www.w3.org/2000/svg" xmlns:xlink="http://www.w3.org/1999/xlink" 
	 viewBox="0 0 512 512" xml:space="preserve">
<g>
	<g>
		<path d="M387.478,340.255c-13.413,17.894-29.328,33.81-47.222,47.222L464.778,512L512,464.778L387.478,340.255z"/>
	</g>
</g>
<g>
	<g>
		<path d="M200.348,0C89.876,0,0,89.876,0,200.348s89.876,200.348,200.348,200.348s200.348-89.876,200.348-200.348
			S310.82,0,200.348,0z M200.348,350.609c-82.854,0-150.261-67.407-150.261-150.261S117.494,50.087,200.348,50.087
			s150.261,67.407,150.261,150.261S283.202,350.609,200.348,350.609z"/>
	</g>
</g>
<g>
	<g>
		<path d="M200.348,83.478c-64.442,0-116.87,52.428-116.87,116.87s52.428,116.87,116.87,116.87s116.87-52.428,116.87-116.87
			S264.79,83.478,200.348,83.478z"/>
	</g>
</g>
</svg>