<svg width="22" height="22" viewBox="0 0 22 22" fill="none" xmlns="http://www.w3.org/2000/svg">
<path fill-rule="evenodd" clip-rule="evenodd" d="M0.25 4.25C0.25 2.84987 0.25 2.1498 0.522484 1.61502C0.762167 1.14462 1.14462 0.762167 1.61502 0.522484C2.1498 0.25 2.84987 0.25 4.25 0.25H5.75C7.15013 0.25 7.8502 0.25 8.38498 0.522484C8.85538 0.762167 9.23783 1.14462 9.47752 1.61502C9.75 2.1498 9.75 2.84987 9.75 4.25V5.75C9.75 7.15013 9.75 7.8502 9.47752 8.38498C9.23783 8.85538 8.85538 9.23783 8.38498 9.47752C7.8502 9.75 7.15013 9.75 5.75 9.75H4.25C2.84987 9.75 2.1498 9.75 1.61502 9.47752C1.14462 9.23783 0.762167 8.85538 0.522484 8.38498C0.25 7.8502 0.25 7.15013 0.25 5.75V4.25ZM21.75 4.25C21.75 2.84987 21.75 2.1498 21.4775 1.61502C21.2378 1.14462 20.8554 0.762167 20.385 0.522484C19.8502 0.25 19.1501 0.25 17.75 0.25H16.25C14.8499 0.25 14.1498 0.25 13.615 0.522484C13.1446 0.762167 12.7622 1.14462 12.5225 1.61502C12.25 2.1498 12.25 2.84987 12.25 4.25V5.75C12.25 7.15013 12.25 7.8502 12.5225 8.38498C12.7622 8.85538 13.1446 9.23783 13.615 9.47752C14.1498 9.75 14.8499 9.75 16.25 9.75H17.75C19.1501 9.75 19.8502 9.75 20.385 9.47752C20.8554 9.23783 21.2378 8.85538 21.4775 8.38498C21.75 7.8502 21.75 7.15013 21.75 5.75V4.25ZM0.25 16.25C0.25 14.8499 0.25 14.1498 0.522484 13.615C0.762167 13.1446 1.14462 12.7622 1.61502 12.5225C2.1498 12.25 2.84987 12.25 4.25 12.25H5.75C7.15013 12.25 7.8502 12.25 8.38498 12.5225C8.85538 12.7622 9.23783 13.1446 9.47752 13.615C9.75 14.1498 9.75 14.8499 9.75 16.25V17.75C9.75 19.1501 9.75 19.8502 9.47752 20.385C9.23783 20.8554 8.85538 21.2378 8.38498 21.4775C7.8502 21.75 7.15013 21.75 5.75 21.75H4.25C2.84987 21.75 2.1498 21.75 1.61502 21.4775C1.14462 21.2378 0.762167 20.8554 0.522484 20.385C0.25 19.8502 0.25 19.1501 0.25 17.75V16.25ZM21.75 16.25C21.75 14.8499 21.75 14.1498 21.4775 13.615C21.2378 13.1446 20.8554 12.7622 20.385 12.5225C19.8502 12.25 19.1501 12.25 17.75 12.25H16.25C14.8499 12.25 14.1498 12.25 13.615 12.5225C13.1446 12.7622 12.7622 13.1446 12.5225 13.615C12.25 14.1498 12.25 14.8499 12.25 16.25V17.75C12.25 19.1501 12.25 19.8502 12.5225 20.385C12.7622 20.8554 13.1446 21.2378 13.615 21.4775C14.1498 21.75 14.8499 21.75 16.25 21.75H17.75C19.1501 21.75 19.8502 21.75 20.385 21.4775C20.8554 21.2378 21.2378 20.8554 21.4775 20.385C21.75 19.8502 21.75 19.1501 21.75 17.75V16.25Z" fill="#FBFBFB"/>
</svg>
