<svg width="22" height="21" viewBox="0 0 22 21" fill="none" xmlns="http://www.w3.org/2000/svg">
<path d="M5.29367 2.96556C2.62685 4.90311 1.29344 5.87189 0.769737 7.30291C0.727726 7.41771 0.689938 7.534 0.656451 7.65157C0.239006 9.11711 0.748322 10.6846 1.76696 13.8197C2.78559 16.9547 3.2949 18.5222 4.49405 19.4625C4.59025 19.5379 4.68918 19.6098 4.79064 19.678C5.21729 19.9647 5.68756 20.1546 6.25 20.2805V16.8197C6.25 14.1963 8.37665 12.0697 11 12.0697C13.6234 12.0697 15.75 14.1963 15.75 16.8197V20.2805C16.3124 20.1546 16.7827 19.9647 17.2094 19.678C17.3108 19.6098 17.4098 19.5379 17.506 19.4625C18.7051 18.5222 19.2144 16.9547 20.2331 13.8197C21.2517 10.6846 21.761 9.11711 21.3436 7.65157C21.3101 7.534 21.2723 7.41771 21.2303 7.30291C20.7066 5.87189 19.3732 4.90312 16.7064 2.96557C14.0395 1.02801 12.7061 0.0592252 11.1833 0.00336104C11.0611 -0.00112035 10.9389 -0.00112035 10.8167 0.00336104C9.29389 0.0592251 7.96048 1.02801 5.29367 2.96556Z" fill="#FBFBFB"/>
<path d="M14.25 20.4732V16.8197C14.25 15.0247 12.7949 13.5697 11 13.5697C9.20507 13.5697 7.75 15.0247 7.75 16.8197V20.4732C8.62296 20.5279 9.67917 20.5279 11 20.5279C12.3208 20.5279 13.377 20.5279 14.25 20.4732Z" fill="#FBFBFB"/>
</svg>
