<svg width="113" height="44" viewBox="0 0 113 44" fill="none" xmlns="http://www.w3.org/2000/svg">
<path d="M12.7231 35.6385C9.96989 35.6385 7.64775 35.2074 5.75667 34.3453C3.86559 33.4554 2.43338 32.2596 1.46003 30.7578C0.486682 29.2283 7.62939e-06 27.4763 7.62939e-06 25.5018H6.63269C6.63269 26.2804 6.84126 27.0035 7.25841 27.6709C7.70337 28.3384 8.37081 28.8807 9.26073 29.2978C10.1507 29.6872 11.3048 29.8818 12.7231 29.8818C14.0023 29.8818 15.073 29.715 15.9351 29.3812C16.7972 29.0475 17.4508 28.5887 17.8957 28.0047C18.3407 27.3928 18.5632 26.6976 18.5632 25.9189C18.5632 24.9456 18.146 24.1808 17.3117 23.6246C16.4774 23.0406 15.1286 22.6651 13.2654 22.4983L10.971 22.2897C7.93976 22.0394 5.52029 21.0939 3.71264 19.4531C1.90499 17.8123 1.00117 15.6431 1.00117 12.9456C1.00117 10.9989 1.46003 9.31635 2.37776 7.89804C3.3233 6.47973 4.63037 5.39514 6.29897 4.64427C7.96757 3.8656 9.94207 3.47626 12.2225 3.47626C14.6142 3.47626 16.6582 3.89341 18.3546 4.72771C20.0788 5.5342 21.3998 6.68831 22.3175 8.19005C23.2352 9.66398 23.6941 11.4021 23.6941 13.4044H17.0197C17.0197 12.6535 16.8389 11.9722 16.4774 11.3604C16.1159 10.7208 15.5736 10.2063 14.8505 9.81693C14.1553 9.42759 13.2793 9.23292 12.2225 9.23292C11.2213 9.23292 10.3731 9.39978 9.67788 9.7335C9.01044 10.0672 8.50986 10.5261 8.17614 11.1101C7.84242 11.6663 7.67556 12.2781 7.67556 12.9456C7.67556 13.8077 7.98147 14.5585 8.59329 15.1982C9.20511 15.8378 10.2063 16.2132 11.5968 16.3245L13.9328 16.533C16.1576 16.7277 18.1182 17.2144 19.8146 17.9931C21.511 18.7439 22.832 19.7868 23.7775 21.1217C24.7509 22.4288 25.2376 24.0278 25.2376 25.9189C25.2376 27.8656 24.7231 29.5759 23.6941 31.0498C22.693 32.496 21.2607 33.6223 19.3975 34.4288C17.5342 35.2352 15.3094 35.6385 12.7231 35.6385Z" fill="#FBFBFB"/>
<path d="M62.7116 35.6385C60.7093 35.6385 58.9295 35.3326 57.3721 34.7208C55.8147 34.0811 54.4938 33.219 53.4092 32.1344C52.3524 31.0498 51.5459 29.8123 50.9897 28.4218C50.4335 27.0035 50.1554 25.5157 50.1554 23.9583V22.9989C50.1554 21.4137 50.4335 19.912 50.9897 18.4936C51.5737 17.0475 52.408 15.7822 53.4926 14.6976C54.605 13.613 55.9399 12.7648 57.4972 12.153C59.0546 11.5133 60.7927 11.1935 62.7116 11.1935C64.6861 11.1935 66.4382 11.5133 67.9677 12.153C69.5251 12.7648 70.846 13.613 71.9306 14.6976C73.0152 15.7822 73.8495 17.0475 74.4335 18.4936C75.0175 19.912 75.3095 21.4137 75.3095 22.9989V23.9583C75.3095 25.5157 75.0314 27.0035 74.4752 28.4218C73.919 29.8123 73.0986 31.0498 72.0141 32.1344C70.9573 33.219 69.6502 34.0811 68.0928 34.7208C66.5355 35.3326 64.7417 35.6385 62.7116 35.6385ZM62.7116 30.007C64.0187 30.007 65.1033 29.7289 65.9654 29.1727C66.8275 28.6165 67.481 27.8378 67.926 26.8366C68.3988 25.8355 68.6351 24.7231 68.6351 23.4994C68.6351 22.1924 68.3988 21.0522 67.926 20.0788C67.4532 19.0777 66.7719 18.2851 65.882 17.7011C65.0198 17.1171 63.9631 16.825 62.7116 16.825C61.488 16.825 60.4312 17.1171 59.5413 17.7011C58.6514 18.2851 57.97 19.0777 57.4972 20.0788C57.0523 21.0522 56.8298 22.1924 56.8298 23.4994C56.8298 24.7231 57.0523 25.8355 57.4972 26.8366C57.9422 27.8378 58.6096 28.6165 59.4996 29.1727C60.3895 29.7289 61.4602 30.007 62.7116 30.007Z" fill="#FBFBFB"/>
<path d="M77.3604 43.1889V11.9861H82.6582V21.8726L81.9491 21.8308C82.0603 19.5504 82.5331 17.6315 83.3674 16.0742C84.2017 14.489 85.328 13.3071 86.7463 12.5284C88.1646 11.7219 89.7637 11.3187 91.5435 11.3187C93.1287 11.3187 94.5609 11.6107 95.8401 12.1947C97.1472 12.7787 98.2596 13.5991 99.1773 14.6559C100.123 15.6848 100.832 16.9085 101.305 18.3268C101.805 19.7173 102.056 21.2468 102.056 22.9154V23.8749C102.056 25.5157 101.819 27.0591 101.347 28.5052C100.874 29.9235 100.179 31.1611 99.2608 32.2179C98.3709 33.2746 97.2724 34.1089 95.9653 34.7208C94.686 35.3048 93.2121 35.5968 91.5435 35.5968C89.8193 35.5968 88.2619 35.2492 86.8714 34.5539C85.5087 33.8308 84.4102 32.7463 83.5759 31.3001C82.7416 29.8262 82.2828 27.9629 82.1993 25.7103L84.0348 28.2132V43.1889H77.3604ZM89.6663 30.007C90.8065 30.007 91.7938 29.7289 92.6281 29.1727C93.4902 28.6165 94.1576 27.8378 94.6304 26.8366C95.1032 25.8355 95.3396 24.6814 95.3396 23.3743C95.3396 22.0672 95.1032 20.927 94.6304 19.9537C94.1576 18.9803 93.5041 18.2294 92.6698 17.7011C91.8355 17.1449 90.8344 16.8668 89.6663 16.8668C88.6652 16.8668 87.7196 17.1031 86.8297 17.5759C85.9398 18.0487 85.2167 18.73 84.6605 19.6199C84.1321 20.4821 83.868 21.5388 83.868 22.7903V24.3337C83.868 25.5296 84.146 26.5585 84.7022 27.4206C85.2863 28.2549 86.0232 28.8946 86.9131 29.3395C87.8031 29.7845 88.7208 30.007 89.6663 30.007Z" fill="#FBFBFB"/>
<path d="M104.779 34.8459V27.3789H112.121V34.8459H104.779Z" fill="#D7FC70"/>
<path fill-rule="evenodd" clip-rule="evenodd" d="M26.5168 0V33.9282H33.1911L33.1912 20.7196C33.1962 19.3971 33.5716 18.3353 34.3174 17.5342C35.0787 16.7457 36.066 16.3427 37.2792 16.3251C38.4924 16.3427 39.4797 16.7457 40.241 17.5342C40.9869 18.3353 41.3623 19.3971 41.3672 20.7196V33.9282H48.0416L48.0417 3.47625H41.3673V10.4235C41.006 10.3806 40.6306 10.3592 40.2409 10.3592H39.9489C38.1904 10.3592 36.368 10.3592 34.6095 10.3592H34.3175C33.9279 10.3592 33.5524 10.3806 33.1911 10.4235V0H26.5168Z" fill="#FBFBFB"/>
</svg>
