<svg width="19" height="21" viewBox="0 0 19 21" fill="none" xmlns="http://www.w3.org/2000/svg">
<path fill-rule="evenodd" clip-rule="evenodd" d="M12.5315 0.250757C11.5866 0.231994 10.5363 0.563366 8.81186 1.1074L8.58716 1.17826C7.9121 1.39107 7.49673 1.522 7.11234 1.70945C6.3177 2.09696 5.62311 2.66249 5.08257 3.36209C4.8211 3.70051 4.60868 4.08071 4.26347 4.69862L1.81809 9.07487C1.0394 10.4679 0.564227 11.318 0.382021 12.1539C-0.0205696 14.0007 0.51022 15.9274 1.80179 17.3075C2.38633 17.9321 3.2298 18.4189 4.61202 19.2167L4.87374 19.3678C6.25573 20.166 7.09906 20.653 7.93226 20.8469C9.77325 21.2754 11.7072 20.7717 13.1053 19.4997C13.7381 18.924 14.2367 18.0874 15.0538 16.7165L17.621 12.4106C17.9836 11.8027 18.2066 11.4286 18.369 11.033C18.7046 10.2151 18.847 9.33077 18.7853 8.44884C18.7554 8.02221 18.6611 7.59702 18.5079 6.90598L18.4569 6.676C18.0659 4.9106 17.8277 3.83527 17.339 3.02633C16.3188 1.33765 14.5041 0.289925 12.5315 0.250757ZM9.09737 2.59019C11.0399 1.9777 11.8359 1.73724 12.5018 1.75046C13.9597 1.77941 15.301 2.55382 16.0551 3.80197C16.3995 4.37202 16.5892 5.18161 17.03 7.17012C17.2008 7.94037 17.2678 8.25157 17.289 8.55357C17.3346 9.20544 17.2293 9.85904 16.9812 10.4636C16.8663 10.7437 16.7049 11.0181 16.3009 11.6957L13.8428 15.8186C12.9236 17.3602 12.5421 17.9842 12.0959 18.3902C11.0625 19.3304 9.63302 19.7027 8.27229 19.386C7.68472 19.2492 7.04733 18.8906 5.49289 17.9932C3.93845 17.0957 3.30921 16.723 2.89699 16.2826C1.94236 15.2625 1.55004 13.8384 1.8476 12.4733C1.97609 11.8839 2.3257 11.2416 3.20124 9.67466L5.54266 5.48444C5.9275 4.79572 6.08445 4.51876 6.26955 4.2792C6.66908 3.76211 7.18246 3.34411 7.76981 3.05769C8.04191 2.92499 8.34494 2.82744 9.09737 2.59019Z" fill="#FBFBFB"/>
<path fill-rule="evenodd" clip-rule="evenodd" d="M9.25673 6.20619C8.56638 7.40192 8.97607 8.9309 10.1718 9.62125C11.3675 10.3116 12.8965 9.90192 13.5869 8.70619C14.2772 7.51046 13.8675 5.98148 12.6718 5.29113C11.4761 4.60077 9.94709 5.01046 9.25673 6.20619ZM10.5558 6.95619C10.2796 7.43448 10.4435 8.04607 10.9218 8.32222C11.4001 8.59836 12.0117 8.43448 12.2878 7.95619C12.564 7.4779 12.4001 6.86631 11.9218 6.59017C11.4435 6.31402 10.8319 6.4779 10.5558 6.95619Z" fill="#FBFBFB"/>
</svg>
